Coordinates
version=1
nRows=39
nColumns=6
inDegrees=yes

Units are S.I. units (second, meters, Newtons, ...)
If the header above contains a line with 'inDegrees', this indicates whether rotational values are in degrees (yes) or radians (no).

endheader
time	foot_tx	hip_flexion_r	knee_angle_r	ankle_angle_r	lumbar
     94.10000000	      0.25571983	     67.49765099	    -74.84364480	      3.29155247	     -9.68501517
     94.11000000	      0.25571228	     67.49913858	    -74.84212767	      3.29361667	     -9.68610262
     94.12000000	      0.25570357	     67.50346160	    -74.84270413	      3.29566845	     -9.68964436
     94.13000000	      0.25569293	     67.50602061	    -74.84353308	      3.29877204	     -9.69164339
     94.14000000	      0.25568202	     67.50834048	    -74.84551068	      3.30281608	     -9.69323136
     94.15000000	      0.25566703	     67.50987304	    -74.84844546	      3.30813134	     -9.69352767
     94.16000000	      0.25566584	     67.51083823	    -74.84741471	      3.31032219	     -9.69405046
     94.17000000	      0.25564560	     67.51375439	    -74.85305604	      3.31703425	     -9.69418872
     94.18000000	      0.25564503	     67.51426155	    -74.85205625	      3.31925479	     -9.69416793
     94.19000000	      0.25562239	     67.51600666	    -74.85791175	      3.32704102	     -9.69084120
     94.20000000	      0.25562150	     67.51680717	    -74.85669437	      3.32886225	     -9.69105830
     94.21000000	      0.25561830	     67.51770371	    -74.85556033	      3.33081910	     -9.69125552
     94.22000000	      0.25559177	     67.52542498	    -74.86061155	      3.33719990	     -9.68347751
     94.23000000	      0.25558844	     67.52651969	    -74.85891639	      3.33878942	     -9.68384054
     94.24000000	      0.25558740	     67.53150006	    -74.85703046	      3.33887134	     -9.68418484
     94.25000000	      0.25559124	     67.55520694	    -74.85559161	      3.33782668	     -9.65968029
     94.26000000	      0.25558526	     67.55814254	    -74.85547189	      3.33953733	     -9.66193171
     94.27000000	      0.25558311	     67.56191917	    -74.85616662	      3.34117685	     -9.66484425
     94.28000000	      0.25557961	     67.56614670	    -74.85732714	      3.34278196	     -9.66823459
     94.29000000	      0.25557570	     67.57091358	    -74.85872682	      3.34435462	     -9.67232450
     94.30000000	      0.25557109	     67.57616537	    -74.86012875	      3.34587135	     -9.67720282
     94.31000000	      0.25556421	     67.58201179	    -74.86099973	      3.34725152	     -9.68289957
     94.32000000	      0.25555797	     67.58847359	    -74.86141721	      3.34818976	     -9.68967231
     94.33000000	      0.25555043	     67.59561487	    -74.86075433	      3.34858093	     -9.69752477
     94.34000000	      0.25554581	     67.60341136	    -74.85869782	      3.34793696	     -9.70674162
     94.35000000	      0.25556048	     67.60658519	    -74.84920527	      3.34252862	     -9.72295247
     94.36000000	      0.25553727	     67.61609106	    -74.84730598	      3.34400459	     -9.73246524
     94.37000000	      0.25554479	     67.62389899	    -74.83896631	      3.34000492	     -9.74640888
     94.38000000	      0.25552113	     67.63539591	    -74.83609634	      3.34157192	     -9.75682609
     94.39000000	      0.25552228	     67.64755714	    -74.82711283	      3.33816607	     -9.76910133
     94.40000000	      0.25549868	     67.66200551	    -74.82414015	      3.33991615	     -9.78098737
     94.41000000	      0.25550163	     67.67848237	    -74.81515208	      3.33644671	     -9.79365972
     94.42000000	      0.25548088	     67.69628478	    -74.81249956	      3.33818526	     -9.80773727
     94.43000000	      0.25548933	     67.71678606	    -74.80395027	      3.33434968	     -9.82244363
     94.44000000	      0.25547181	     67.73820968	    -74.80164684	      3.33591777	     -9.83952975
     94.45000000	      0.25548463	     67.76218605	    -74.79268275	      3.33134336	     -9.85838987
     94.46000000	      0.25548644	     67.78710244	    -74.78670005	      3.32916232	     -9.88058331
     94.47000000	      0.25549401	     67.81280523	    -74.77980347	      3.32601576	     -9.90701159
     94.48000000	      0.25550810	     67.83823053	    -74.77071247	      3.32125758	     -9.93971928
